# xmcd
# 
# Track frame offsets:
#     150
#     7556
#     28434
#     47077
#     72437
# 
# Disc length: 1093
# 
# Revision: 1
# Processed by: cddbd v1.5.2PL0 Copyright (c) Steve Scherf et al.
# Submitted via: BonkEnc v1.0.6
# 
DISCID=39044305
DTITLE=A+Jyuc - Jyucbox
DYEAR=2006
DGENRE=Country
TTITLE0=Insert Your Coin
TTITLE1=ササエテクレテ・・・
TTITLE2=夢の終わり～Second Note～
TTITLE3=Orange
TTITLE4=Continue?
EXTD=
EXTT0=
EXTT1=
EXTT2=
EXTT3=
EXTT4=
PLAYORDER=
